<svg id="Layer_1" data-name="Layer 1" xmlns="http://www.w3.org/2000/svg" viewBox="0 0 470 471"><defs><style>.cls-1{fill:#d3e3f7;}.cls-2{fill:#6b8199;}.cls-3{fill:#40c0fa;}.cls-4{fill:#ffd740;}.cls-5{fill:#bdcbde;}.cls-6{opacity:0.03;}.cls-7,.cls-9{fill:none;}.cls-7{stroke:#000;stroke-miterlimit:10;stroke-width:3px;}.cls-8{fill:#263238;}</style></defs><path class="cls-1" d="M371.79,105.61a13.7,13.7,0,0,0-1.1-6.29l-71.46,71.3.54.64L288.86,182.1c-.18-.2-.35-.4-.52-.61l-7.71,7.69c20.53,25.26,17.74,66.34-15.53,87.67,0,7.31,0,14.61,0,21.91,0,4.95-.43,9.8-2.51,14.41a30,30,0,0,1-32.32,17.19,29.45,29.45,0,0,1-24.4-28.05c-.24-6.71-.09-13.43-.11-20.14,0-1.78,0-3.55,0-5.43a81.7,81.7,0,0,1-7.42-5.46l-7.91,7.89.6.58-11.77,11.69-.54-.58L102.22,367.2a7.74,7.74,0,0,0,3.84,1.33c1.19.1,2.39.05,3.59.05H315.94c-1.66-4.76-2-8.87.32-12.74C319.77,350,323.2,344,327,338.26c4.11-6.27,10.85-7.94,17.64-4.76l4,1.91,13.42-7.86c-.43-7.23,2.31-12.94,9.73-15.8v-4.19Q371.79,206.58,371.79,105.61ZM291.5,291.27l-11.2-11.1,8.71-9.38,11.23,11.89C297.44,285.43,294.4,288.43,291.5,291.27Zm29.44-58.38a102.92,102.92,0,0,1-16,.13V220h16Z"/><path class="cls-1" d="M443.39,232.1c.08,4.42-3.09,7.4-8.18,7.46-6.69.07-13.38,0-20.62,0V225.28a30.71,30.71,0,0,1,3.39-.41c5.67-.05,11.34-.07,17,0C440.16,224.92,443.32,227.69,443.39,232.1Z"/><path class="cls-1" d="M443.39,131.94a7,7,0,0,1-6.55,7.2c-7.27.24-14.55.07-22.28.07V124.53c4,0,7.82,0,11.63,0,3.43,0,6.87-.13,10.29.08A7.13,7.13,0,0,1,443.39,131.94Z"/><path class="cls-1" d="M343.09,53H329a7.79,7.79,0,0,1-.57-2c-.05-6.41-.14-12.83,0-19.24.09-4.5,3.06-7.48,7.16-7.56a7.14,7.14,0,0,1,7.47,7.24C343.22,38.48,343.09,45.48,343.09,53Z"/><path class="cls-1" d="M242.79,49.18c0,1.16-.15,2.32-.26,3.78H228.11c0-7.56-.15-14.7,0-21.83a7.28,7.28,0,0,1,14.52-.29C242.94,36.94,242.79,43.06,242.79,49.18Z"/><path class="cls-1" d="M142.38,53.05h-14.5c0-7.78-.22-15.34.1-22.87.15-3.55,3.68-6,7.27-5.93s6.91,2.57,7.05,6.2C142.58,37.86,142.38,45.28,142.38,53.05Z"/><path class="cls-1" d="M56.28,124.63v14.5c-7.76,0-15.32.23-22.85-.1-3.58-.16-6-3.65-6-7.24s2.57-6.94,6.17-7.08C41,124.43,48.47,124.63,56.28,124.63Z"/><path class="cls-2" d="M399,71.12,381,89.06a20.66,20.66,0,0,0-16.46-7.58c-24.77-.08-49.55,0-74.32,0H107.5c-10.32,0-18,4.9-21.33,13.93a27.56,27.56,0,0,0-1.46,9.17q-.1,100.08,0,200.15c0,17.61.64,35.26-.19,52.83-.41,8.82,2.77,15.35,7.83,19.58L73.91,395.44c-1.76-1.24-2.67-3.35-2.92-6.5-.1-1.18,0-2.38,0-3.58q0-153.35,0-306.71a29.9,29.9,0,0,1,.12-4,7.28,7.28,0,0,1,6.67-6.76,31.66,31.66,0,0,1,4.47-.15H388c.6,0,1.2,0,1.8,0C394.86,67.77,397.6,68.58,399,71.12Z"/><path class="cls-1" d="M56.28,224.86V239a12.75,12.75,0,0,1-2.54.52c-6.11.05-12.23.11-18.34,0-4.82-.07-7.89-3-7.92-7.25s3-7.33,7.76-7.41C42.07,224.77,48.92,224.86,56.28,224.86Z"/><path class="cls-1" d="M56.28,325.17v14.17a13.5,13.5,0,0,1-2.54.52c-6.11.05-12.23.1-18.34,0-4.8-.08-7.89-3-7.93-7.27s3-7.33,7.76-7.4C42.07,325.09,48.91,325.17,56.28,325.17Z"/><path class="cls-1" d="M142.45,432.28c-.08,4.8-3,7.87-7.29,7.9s-7.3-3-7.37-7.81c-.12-6.84,0-13.67,0-21h14.37c.13,1.38.33,2.65.34,3.93C142.5,421,142.56,426.62,142.45,432.28Z"/><path class="cls-1" d="M242.77,432.2c-.08,4.82-3,7.92-7.21,8s-7.38-3-7.46-7.72c-.11-6.84,0-13.69,0-21,1.47-.13,2.33-.27,3.19-.28,3.57,0,7.14,0,11,0a20.41,20.41,0,0,1,.54,3.15C242.81,420.27,242.86,426.23,242.77,432.2Z"/><path class="cls-3" d="M440.62,402.27c-5.59-3.12-7.74-7.88-7.25-14.19a74.51,74.51,0,0,0,0-11.18c-.44-6.16,1.84-10.71,7.2-13.77a15.55,15.55,0,0,0,2.17-1.87l-9.23-15.13c-10.47,4.63-12.14,4.48-21.36-1.3a26.49,26.49,0,0,0-5.09-2.77c-7.49-2.63-11.49-7.68-11.5-15.73,0-.23-.33-.46-.58-.79H376.72c-.32.44-.45.55-.48.68a5.92,5.92,0,0,0-.24,1.31c0,6.79-3.44,11.13-9.55,13.74a34.38,34.38,0,0,0-7.47,4c-6.31,4.85-12.72,5.33-19.53,1.26-.21-.13-.56,0-1.41-.08-2.89,4.81-5.92,9.85-9,15a21.09,21.09,0,0,0,2.14,1.64c5.57,3.13,7.75,7.87,7.25,14.19a74.51,74.51,0,0,0,0,11.18c.42,6.15-1.87,10.71-7.22,13.78a15.53,15.53,0,0,0-2.15,1.87l9.22,15.17a22,22,0,0,0,2.34-1c5.94-3.53,11.59-3,17.15,1a30.63,30.63,0,0,0,7,4c7.46,2.71,11.47,7.73,11.5,15.76,0,.23.33.46.67.9h18.45a13.28,13.28,0,0,0,.42-2.12c0-6.77,3.46-11.1,9.57-13.74a48.61,48.61,0,0,0,8.59-4.75c5.58-3.93,11.21-4.46,17.18-1.08a24,24,0,0,0,2.4,1l9.25-15.35A22.88,22.88,0,0,0,440.62,402.27Zm-54.91,8.92a28.5,28.5,0,1,1,28.69-28.32A28.73,28.73,0,0,1,385.71,411.19Z"/><path class="cls-2" d="M324,389.14l-9.31,7.77H81.91c-.89,0-1.79,0-2.68,0a9.57,9.57,0,0,1-5.32-1.46L92.3,377.1A27.07,27.07,0,0,0,109.85,383c68.8-.38,137.61-.18,206.42-.18h7.17C323.67,385.25,323.87,387.38,324,389.14Z"/><path class="cls-2" d="M400.14,305.14v5.5H386.3c-.11-2.3-.28-4.33-.28-6.37q0-99.18,0-198.36a34.33,34.33,0,0,0-1-8.83,22,22,0,0,0-4-8l18-17.94c.86,1.59,1.17,3.84,1.17,7Q400.15,191.64,400.14,305.14Z"/><path class="cls-4" d="M258.91,264c-5,3-8.29,6.11-7.47,12.24.06.39-.24.82-.48,1.6H219.08c2-8-2.82-11.17-8.37-14.67-.85-.54-1.68-1.11-2.48-1.7A43.48,43.48,0,0,1,193,213c6.49-19.67,25-32.53,45.05-31.29a44.29,44.29,0,0,1,40.56,33.49A44,44,0,0,1,258.91,264Z"/><path class="cls-2" d="M245,313.46a16.07,16.07,0,0,1-18.09.68c-6.27-4.05-8.79-12.14-6.47-21.62h30C252.9,300.76,250.69,309.1,245,313.46Z"/><path class="cls-5" d="M361.77,95.89H109.68a33.8,33.8,0,0,0-4,.08,7.19,7.19,0,0,0-6.46,6.41,33.63,33.63,0,0,0-.08,4V358.49a28.45,28.45,0,0,0,.08,3.58,7.23,7.23,0,0,0,3,5.13l76.51-76.34c-2.59-2.79-5.32-5.7-8.18-8.77l11.72-10.85,8.17,7.93,7.91-7.89c-13.49-11.24-21-25.81-21.27-44.41-.25-16.53,5.76-30.64,17.44-42.19a58.16,58.16,0,0,1,84.31,2.39c.62.69,1.22,1.39,1.8,2.11l7.71-7.69c-2.64-3-5.32-6.14-7.88-9.09l10.94-11,7.83,9.26,71.46-71.3C369.34,96.78,366.63,95.89,361.77,95.89Zm-195.71,137H149.89V220h16.17Zm15.66-51.28L170.9,170.09l8.35-8.13,11.28,11.65Zm60.35-24.55H228.63V141.31h13.44Z"/><g class="cls-6"><polyline class="cls-7" points="80.4 400.3 363.85 118.2 410.31 71.94"/><polyline class="cls-7" points="106.81 406.4 368.59 145.87 411.5 103.14"/><polyline class="cls-7" points="60.9 355.18 316.82 100.48 358.77 58.71"/><polyline class="cls-7" points="67.69 380.81 344.53 105.29 389.92 60.1"/><polyline class="cls-7" points="208.14 402.38 382.85 228.5 411.5 199.99"/><polyline class="cls-7" points="236.91 406.14 385.12 258.64 409.41 234.45"/><polyline class="cls-7" points="142.49 403.2 373 173.78 410.8 136.16"/><polyline class="cls-7" points="176.38 401.86 375.99 203.2 408.71 170.62"/><polyline class="cls-7" points="63.68 287.64 264.5 87.78 297.42 55.01"/><polyline class="cls-7" points="65.78 317.95 291.93 92.87 329.01 55.96"/><polyline class="cls-7" points="65.07 221.73 200.4 87.04 222.59 64.96"/><polyline class="cls-7" points="58.82 260.34 235.28 84.72 264.21 55.92"/><polyline class="cls-7" points="268.24 408.31 384.75 292.36 403.85 273.34"/><polyline class="cls-7" points="58.12 196.84 179.75 75.79 199.69 55.94"/><polyline class="cls-7" points="62.35 160.29 151.84 71.24 166.51 56.63"/><polyline class="cls-7" points="56.73 131.22 122.32 65.94 133.07 55.24"/></g><path class="cls-8" d="M450.33,373.48c6.88-4.33,8.82-11.07,4.89-18.08-3.29-5.85-6.76-11.61-10.45-17.2-4-6.08-10.6-7.73-17.27-4.74-1.47.66-2.91,1.37-4.33,2l-8.51-5.26V253.45c7.34,0,14.34.15,21.32,0,11.13-.31,19.29-7.69,21.11-18.83,1.46-9-4.65-19-13.83-22.11a32.38,32.38,0,0,0-9.2-1.44c-6.38-.22-12.76-.07-19.45-.07V153.35c1.75-.08,3.21-.19,4.67-.2,5.37,0,10.75.07,16.12,0,12.4-.22,22-9.64,21.88-21.38s-9.57-20.83-21.74-21.07c-5.07-.1-10.15,0-15.22,0h-6v-5.49c0-9.55,0-19.1,0-28.65,0-6.39-1.82-11.7-5.1-15.62-4-4.82-10.27-7.52-18.16-7.55-9.7,0-19.4,0-29.1,0-1.57,0-3.14-.13-5-.21,0-7.54.14-14.54,0-21.54a21.2,21.2,0,0,0-14.13-19.86,21,21,0,0,0-23.12,6.19,22,22,0,0,0-5.18,14.87c0,6.67,0,13.35,0,20.23H257.15a6.28,6.28,0,0,1-.38-1.15c0-6.27.2-12.55-.2-18.8a31.28,31.28,0,0,0-2.36-10.77,20.32,20.32,0,0,0-22.55-11.41c-10.21,2.14-17,10-17.42,20.42-.21,6,0,11.94-.07,17.91,0,1.28-.19,2.56-.3,3.85H156.58c-.08-1.72-.2-3.18-.21-4.64,0-5.67.16-11.35-.06-17-.44-11.88-9.9-21.12-21.29-21s-20.74,9.36-21.11,21.24c-.16,5.07,0,10.15,0,15.22v6.51h-5.43c-9.55,0-19.11,0-28.66,0-14.3,0-23.17,8.91-23.22,23.19,0,9.7,0,19.4,0,29.11,0,1.57-.13,3.15-.21,5-7.34,0-14.19-.1-21,0-12,.22-21.26,9.1-21.71,20.64C13.15,142.43,22,152.17,33.7,153c5.94.43,11.93.09,17.9.13,1.57,0,3.14.14,4.64.21v57.37c-1,.09-1.73.22-2.45.22-6.27,0-12.54-.1-18.81.05-11.58.29-20.72,8.71-21.31,20.05-.61,11.85,8.07,20.82,17.7,21.85,5.76.61,11.6.42,17.41.55,2.47.05,4.95,0,7.5,0V311c-.94.1-1.65.24-2.36.24-6.42,0-12.84-.14-19.25.07-11.38.38-20.28,8.69-21,19.91a20.84,20.84,0,0,0,17.56,22,69.48,69.48,0,0,0,8.9.51c5.32.08,10.64,0,16.41,0v5.39c0,9.56,0,19.11,0,28.66,0,7.66,2.58,13.78,7.14,17.81,4,3.5,9.4,5.43,16,5.46,9.7,0,19.41,0,29.11,0h5.05c0,7.09-.15,13.49.07,19.88a32.3,32.3,0,0,0,1.5,9.18,20.73,20.73,0,0,0,21.74,13.74c11.1-1.44,18.69-9.73,19.12-20.81.23-5.81,0-11.64.07-17.46,0-1.42.12-2.84.19-4.22h57.38c.1,1,.23,1.71.23,2.43,0,6.26-.1,12.54.05,18.8.28,11.6,8.6,20.68,20,21.33s20.64-7.5,21.86-17.67c.65-5.45.43-11,.55-16.51.07-2.77,0-5.55,0-8.44h60.61c1.63,2.65,3.19,5.18,4.74,7.72s3,5.15,4.66,7.63c4.42,6.64,11.16,8.42,18.31,4.94,1.19-.57,2.37-1.17,3.38-1.66l13.57,7.65c.06.9.1,1.78.18,2.66.85,9,6,13.73,14.94,13.8,6.26.05,12.54.12,18.8,0,7.34-.17,12.32-4.62,13.52-11.81.26-1.6.4-3.23.57-4.65l13.32-7.74c1.54.76,3,1.54,4.47,2.19,6.52,2.78,13,1.11,16.91-4.77s7.5-11.84,10.86-18,1.45-12.9-4.35-16.86c-1.22-.83-2.48-1.6-3.62-2.34V375.2C448.57,374.57,449.46,374,450.33,373.48Zm-394-34.14a13.5,13.5,0,0,1-2.54.52c-6.11.05-12.23.1-18.34,0-4.8-.08-7.89-3-7.93-7.27s3-7.33,7.76-7.4c6.84-.11,13.68,0,21.05,0Zm0-100.32a12.75,12.75,0,0,1-2.54.52c-6.11.05-12.23.11-18.34,0-4.82-.07-7.89-3-7.92-7.25s3-7.33,7.76-7.41c6.83-.12,13.68,0,21,0Zm0-99.89c-7.76,0-15.32.23-22.85-.1-3.58-.16-6-3.65-6-7.24s2.57-6.94,6.17-7.08c7.4-.28,14.83-.08,22.64-.08ZM418,224.87c5.67-.05,11.34-.07,17,0,5.18.06,8.34,2.83,8.41,7.24s-3.09,7.4-8.18,7.46c-6.69.07-13.38,0-20.62,0V225.28A30.71,30.71,0,0,1,418,224.87Zm-3.42-100.34c4,0,7.82,0,11.63,0,3.43,0,6.87-.13,10.29.08a7.13,7.13,0,0,1,6.91,7.33,7,7,0,0,1-6.55,7.2c-7.27.24-14.55.07-22.28.07ZM328.42,31.81c.09-4.5,3.06-7.48,7.16-7.56a7.14,7.14,0,0,1,7.47,7.24c.17,7,0,14,0,21.55H329a7.79,7.79,0,0,1-.57-2C328.39,44.64,328.3,38.22,328.42,31.81Zm-100.26-.68a7.28,7.28,0,0,1,14.52-.29c.26,6.1.11,12.22.11,18.34,0,1.16-.15,2.32-.26,3.78H228.11C228.11,45.4,228,38.26,228.16,31.13ZM128,30.18c.15-3.55,3.68-6,7.27-5.93s6.91,2.57,7.05,6.2c.28,7.41.08,14.83.08,22.6h-14.5C127.88,45.27,127.66,37.71,128,30.18Zm14.47,402.1c-.08,4.8-3,7.87-7.29,7.9s-7.3-3-7.37-7.81c-.12-6.84,0-13.67,0-21h14.37c.13,1.38.33,2.65.34,3.93C142.5,421,142.56,426.62,142.45,432.28Zm100.32-.08c-.08,4.82-3,7.92-7.21,8s-7.38-3-7.46-7.72c-.11-6.84,0-13.69,0-21,1.47-.13,2.33-.27,3.19-.28,3.57,0,7.14,0,11,0a20.41,20.41,0,0,1,.54,3.15C242.81,420.27,242.86,426.23,242.77,432.2Zm72-35.29H81.91c-.89,0-1.79,0-2.68,0a9.57,9.57,0,0,1-5.32-1.46c-1.76-1.24-2.67-3.35-2.92-6.5-.1-1.18,0-2.38,0-3.58q0-153.35,0-306.71a29.9,29.9,0,0,1,.12-4,7.28,7.28,0,0,1,6.67-6.76,31.66,31.66,0,0,1,4.47-.15H388c.6,0,1.2,0,1.8,0,5.05,0,7.79.86,9.15,3.4.86,1.59,1.17,3.84,1.17,7q0,113.51,0,227v5.5H386.3c-.11-2.3-.28-4.33-.28-6.37q0-99.18,0-198.36a34.33,34.33,0,0,0-1-8.83,22,22,0,0,0-4-8,20.66,20.66,0,0,0-16.46-7.58c-24.77-.08-49.55,0-74.32,0H107.5c-10.32,0-18,4.9-21.33,13.93a27.56,27.56,0,0,0-1.46,9.17q-.1,100.08,0,200.15c0,17.61.64,35.26-.19,52.83-.41,8.82,2.77,15.35,7.83,19.58A27.07,27.07,0,0,0,109.85,383c68.8-.38,137.61-.18,206.42-.18h7.17c.23,2.47.43,4.6.6,6.36ZM327,338.26c-3.76,5.74-7.19,11.69-10.7,17.58-2.3,3.87-2,8-.32,12.74H109.65c-1.2,0-2.4.05-3.59-.05a7.74,7.74,0,0,1-3.84-1.33,7.23,7.23,0,0,1-3-5.13,28.45,28.45,0,0,1-.08-3.58V106.4a33.63,33.63,0,0,1,.08-4A7.19,7.19,0,0,1,105.65,96a33.8,33.8,0,0,1,4-.08H361.77c4.86,0,7.57.89,8.92,3.43a13.7,13.7,0,0,1,1.1,6.29q0,101,0,202v4.19c-7.42,2.86-10.16,8.57-9.73,15.8l-13.42,7.86-4-1.91C337.81,330.32,331.07,332,327,338.26Zm106.57,81a24,24,0,0,1-2.4-1c-6-3.38-11.6-2.85-17.18,1.08a48.61,48.61,0,0,1-8.59,4.75c-6.11,2.64-9.52,7-9.57,13.74a13.28,13.28,0,0,1-.42,2.12H376.92c-.34-.44-.67-.67-.67-.9,0-8-4-13.05-11.5-15.76a30.63,30.63,0,0,1-7-4c-5.56-3.94-11.21-4.49-17.15-1a22,22,0,0,1-2.34,1l-9.22-15.17a15.53,15.53,0,0,1,2.15-1.87c5.35-3.07,7.64-7.63,7.22-13.78a74.51,74.51,0,0,1,0-11.18c.5-6.32-1.68-11.06-7.25-14.19a21.09,21.09,0,0,1-2.14-1.64c3.08-5.14,6.11-10.18,9-15,.85,0,1.2,0,1.41.08,6.81,4.07,13.22,3.59,19.53-1.26a34.38,34.38,0,0,1,7.47-4c6.11-2.61,9.53-6.95,9.55-13.74a5.92,5.92,0,0,1,.24-1.31c0-.13.16-.24.48-.68H395c.25.33.58.56.58.79,0,8.05,4,13.1,11.5,15.73a26.49,26.49,0,0,1,5.09,2.77c9.22,5.78,10.89,5.93,21.36,1.3l9.23,15.13a15.55,15.55,0,0,1-2.17,1.87c-5.36,3.06-7.64,7.61-7.2,13.77a74.51,74.51,0,0,1,0,11.18c-.49,6.31,1.66,11.07,7.25,14.19a22.88,22.88,0,0,1,2.16,1.62Z"/><path class="cls-8" d="M280.63,189.18c-.58-.72-1.18-1.42-1.8-2.11a58.16,58.16,0,0,0-84.31-2.39c-11.68,11.55-17.69,25.66-17.44,42.19.28,18.6,7.78,33.17,21.27,44.41a81.7,81.7,0,0,0,7.42,5.46c0,1.88,0,3.65,0,5.43,0,6.71-.13,13.43.11,20.14a29.45,29.45,0,0,0,24.4,28.05,30,30,0,0,0,32.32-17.19c2.08-4.61,2.52-9.46,2.51-14.41,0-7.3,0-14.6,0-21.91C298.37,255.52,301.16,214.44,280.63,189.18ZM245,313.46a16.07,16.07,0,0,1-18.09.68c-6.27-4.05-8.79-12.14-6.47-21.62h30C252.9,300.76,250.69,309.1,245,313.46Zm14-49.5c-5,3-8.29,6.11-7.47,12.24.06.39-.24.82-.48,1.6H219.08c2-8-2.82-11.17-8.37-14.67-.85-.54-1.68-1.11-2.48-1.7A43.48,43.48,0,0,1,193,213c6.49-19.67,25-32.53,45.05-31.29a44.29,44.29,0,0,1,40.56,33.49A44,44,0,0,1,258.91,264Z"/><rect class="cls-8" x="228.63" y="141.31" width="13.44" height="15.78"/><path class="cls-8" d="M191,279.75l-11.77,11.69-.54-.58c-2.59-2.79-5.32-5.7-8.18-8.77l11.72-10.85,8.17,7.93Z"/><path class="cls-8" d="M300.24,282.68c-2.8,2.75-5.84,5.75-8.74,8.59l-11.2-11.1,8.71-9.38Z"/><path class="cls-8" d="M190.53,173.61l-8.81,8L170.9,170.09l8.35-8.13Z"/><path class="cls-8" d="M299.77,171.26,288.86,182.1c-.18-.2-.35-.4-.52-.61-2.64-3-5.32-6.14-7.88-9.09l10.94-11,7.83,9.26Z"/><rect class="cls-8" x="149.89" y="220.01" width="16.17" height="12.91"/><path class="cls-8" d="M320.94,220v12.85a102.92,102.92,0,0,1-16,.13V220Z"/><path class="cls-8" d="M386.09,354.19a28.5,28.5,0,1,0,28.31,28.68A28.71,28.71,0,0,0,386.09,354.19Zm0,43.07a14.58,14.58,0,1,1,14.42-14.52A14.42,14.42,0,0,1,386.06,397.26Z"/><line class="cls-9" x1="380.97" y1="89.06" x2="370.69" y2="99.32"/><line class="cls-9" x1="299.23" y1="170.62" x2="288.34" y2="181.49"/><line class="cls-9" x1="190.44" y1="279.17" x2="178.73" y2="290.86"/><line class="cls-9" x1="102.22" y1="367.2" x2="92.3" y2="377.1"/></svg>