<svg id="Layer_1" data-name="Layer 1" xmlns="http://www.w3.org/2000/svg" viewBox="0 0 470 471"><defs><style>.cls-1{fill:#263238;}.cls-2{fill:#40c0fa;}.cls-3{fill:#fff;}.cls-4{fill:#ffd740;}.cls-5,.cls-6{fill:none;stroke:#fad340;}.cls-5{stroke-width:3px;}.cls-6{stroke-width:2.87px;}</style></defs><path class="cls-1" d="M312.76,116.1c8.35-6.85,16.41-14.07,24.32-21.44,2.77-2.57,4.34-2.37,7.33-.18,14.18,10.47,29.68,12.34,45.53,4.57,15.64-7.65,23.9-20.83,24.58-38.21.72-18.49-10.85-35.21-28.23-41.86A43.54,43.54,0,0,0,337.78,31.3,42.76,42.76,0,0,0,333,81.43c2.25,3.79,1.6,5.54-1.43,8.11-8.63,7.28-17.08,14.81-25.46,22.4-2.31,2.1-3.83,2.23-6.22,0q-13.1-11.92-26.56-23.43c-2.38-2-2.59-3.51-.9-6.18a40.92,40.92,0,0,0,6.26-26.19,43.74,43.74,0,0,0-78-23.24c-11.26,14.34-12.48,33.33-2.85,49.5,1.65,2.78,1.36,4.17-1,6.16-8.83,7.58-17.62,15.24-26.17,23.12-2.78,2.58-4.46,2.15-7-.18-8.1-7.39-16.26-14.76-24.72-21.74-3.53-2.9-3.77-4.87-1.46-8.88,9.82-17,6.52-38.52-7.49-52.26a43.73,43.73,0,0,0-73.1,41.61c7.53,30.56,43.94,43.37,69,24.27,1.85-1.39,3.18-3.64,6.15-.88,8.63,8,17.54,15.8,26.52,23.48,2.6,2.21,2,3.41-.21,5.32q-13.2,11.43-26.17,23.12c-2,1.81-3.29,1.92-5.38.14a41.46,41.46,0,0,0-25.58-9.82c-23.13-1-42.64,15.94-45.47,39.41-2.64,21.85,13.08,42.86,35.5,47.09,3.33.63,4.34,1.85,4.27,5.14-.2,9.31-.07,18.63-.06,27.94,0,7.39.43,7.81,8,7.81q61.37,0,122.74-.07c3.75,0,5.19.74,5,4.86-.32,9.63-.07,19.27-.11,28.92,0,3,.25,6.16,4.12,6,3.5-.15,3.67-3.17,3.66-6,0-9.81.14-19.63-.1-29.44-.1-3.6,1.11-4.38,4.51-4.37,20.79.15,41.58.08,62.37.08h60.37c8.36,0,8.54-.18,8.54-8.77,0-9,.14-18-.07-26.94-.07-3.29.89-4.56,4.25-5.17,20.17-3.56,35.43-21.18,35.62-41.58.16-18-7.85-31.87-23.94-40.1s-31.9-6.33-46.38,4.41c-2.88,2.13-4.33,2.23-6.94-.2q-11.89-11-24.3-21.46C309.69,120.75,309,119.17,312.76,116.1Zm58.06-92.26a36,36,0,1,1-36,35.65A36,36,0,0,1,370.82,23.84ZM99.21,95.9a36,36,0,1,1,36.23-36A36.11,36.11,0,0,1,99.21,95.9ZM235.44,24A35.83,35.83,0,1,1,199.3,59.66,36,36,0,0,1,235.44,24Zm-59.75,93.44c9.06-8,18.18-16,27.22-24.1,1.54-1.38,2.58-1.41,4.18-.06a43.4,43.4,0,0,0,55.86.17c1.72-1.45,2.85-1.56,4.59,0q13.51,12.15,27.24,24.07c1.83,1.59,1.93,2.63.05,4.28q-13.9,12.09-27.62,24.4c-1.71,1.54-2.69.86-4.2-.22-18.93-13.69-36.75-13.68-55.84.07-1.61,1.15-2.57,1.51-4.19.06-9.15-8.21-18.39-16.3-27.59-24.44a18.78,18.78,0,0,1-1.45-1.59C174,118.61,175,118.11,175.69,117.48Zm95.47,62.19a36,36,0,1,1-36.09-36.08A36.08,36.08,0,0,1,271.16,179.67Zm-207.58-.76a35.84,35.84,0,1,1,35.26,36.53A36,36,0,0,1,63.58,178.91ZM371,143.78A35.83,35.83,0,1,1,335,179,36,36,0,0,1,371,143.78Zm-38.47,7c2.27,2,2.66,3.34,1,6.15-15.75,27-1.12,59.46,29.52,65.5,3.09.62,4,1.83,3.94,4.9-.2,7.8-.32,15.63,0,23.43.19,4.17-1.36,4.85-5.08,4.83-42.23-.12-84.46-.07-126.69-.07s-84.46-.08-126.69.12c-4.51,0-5.61-1.24-5.41-5.55.35-7.63.21-15.28,0-22.93-.06-2.79.62-4.09,3.61-4.67,31.07-6.22,45.57-38.19,29.76-65.69-1.45-2.53-1.38-3.86.87-5.78q13.64-11.67,26.93-23.75c2.23-2,3.69-1.89,5.84,0,8.52,7.68,17.07,15.33,25.83,22.74,2.94,2.46,3.33,4.15,1.35,7.69-8.93,16-8.46,32.06,2.13,46.94,10.82,15.21,26.22,21.32,44.53,17.53,17.47-3.6,28.65-14.79,33.37-32,3.19-11.61,1.33-22.79-4.92-33-1.78-2.93-1.4-4.43,1.07-6.55q13.08-11.17,25.8-22.76c2.53-2.31,4.22-2.79,7-.22C315,135.59,323.74,143.23,332.56,150.82Z"/><path class="cls-2" d="M135.26,180a35.84,35.84,0,1,1-35-36.26A36,36,0,0,1,135.26,180Z"/><path class="cls-3" d="M271.16,179.67a36,36,0,1,1-36.09-36.08A36.08,36.08,0,0,1,271.16,179.67Z"/><path class="cls-2" d="M406.68,179.91A35.84,35.84,0,1,1,371,143.78,36.09,36.09,0,0,1,406.68,179.91Z"/><path class="cls-3" d="M406.87,60a36,36,0,1,1-36.05-36.11A36.1,36.1,0,0,1,406.87,60Z"/><path class="cls-2" d="M271,60.29A35.84,35.84,0,1,1,235.44,24,36.05,36.05,0,0,1,271,60.29Z"/><path class="cls-3" d="M135.44,59.93A36,36,0,1,1,99.87,23.82,36.05,36.05,0,0,1,135.44,59.93Z"/><path class="cls-4" d="M262.64,381.91c-5.65,6.77-10.26,13.91-11.45,22.78-.48,3.54-3,2.45-4.9,2.45-8.17,0-7,.8-7-6.68-.05-4.15,0-8.3,0-12.46h0c0-5.14,0-10.29,0-15.44,0-2.83-1-5.13-4.11-5.11s-4.09,2.3-4.08,5.14c0,10-.15,19.93.08,29.89.08,3.65-.92,4.7-4.68,4.87-5.13.23-7.56-.92-8.34-6.56C217,393.2,212,387.38,207.28,381.5c-15.49-19.27-7.13-48.11,16.06-55.93a35.92,35.92,0,0,1,41,13.36A34.89,34.89,0,0,1,262.64,381.91Z"/><path class="cls-4" d="M126.74,382c-5.57,6.64-10.06,13.69-11.24,22.38-.53,3.87-3.29,2.55-5.29,2.6-6.69.21-6.69.11-6.69-6.55,0-4.16,0-8.31,0-12.48,0-5,0-10,0-15,0-2.91-.59-5.64-4.07-5.66s-4.16,2.62-4.15,5.58c0,9.81-.16,19.62.08,29.43.09,3.68-1,4.67-4.71,4.87-5.21.3-7.53-1.05-8.32-6.6-1-7.42-5.87-13.17-10.54-18.91-15.82-19.42-7.49-48.55,16-56.31a36,36,0,0,1,41,13.59A35,35,0,0,1,126.74,382Z"/><path class="cls-4" d="M399.56,380.19c-5.84,7.59-11.57,15-12.74,24.87-.22,1.82-1.31,2.06-2.76,2.05-2,0-4-.1-6,0-2.38.15-3.21-.86-3.17-3.2.11-5.31,0-10.63,0-15.94h0c0-5,0-10,0-14.95,0-2.92-.57-5.63-4.05-5.67s-4.18,2.6-4.17,5.57c0,9.8-.12,19.6.09,29.39.08,3.54-.7,4.84-4.6,4.94-5,.13-7.65-.71-8.41-6.49-1-7.41-5.78-13.19-10.45-18.91a35.41,35.41,0,0,1,6.83-51.81,35.81,35.81,0,0,1,46.07,4.15C408.58,346.6,410.26,366.3,399.56,380.19Z"/><path class="cls-1" d="M167.29,415c-8.63,0-17.26,0-25.88,0-2.87,0-5.75-.37-5.76-3.87s2.84-3.92,5.73-3.91q25.88,0,51.75,0c2.89,0,5.73.39,5.75,3.88S196,415,193.16,415C184.54,415,175.91,415,167.29,415Z"/><path class="cls-1" d="M303,415c-8.62,0-17.25,0-25.88,0-2.87,0-5.73-.4-5.71-3.91s2.88-3.87,5.76-3.86q25.88,0,51.76,0c2.9,0,5.72.42,5.71,3.92S331.7,415,328.83,415C320.21,415,311.58,415,303,415Z"/><path class="cls-5" d="M394.8,328.32,332.61,362"/><path class="cls-5" d="M381,321.63,334.3,346.9"/><path class="cls-5" d="M403.23,380.69l-51.36,27.82"/><path class="cls-5" d="M409,363.41,348.7,396.08"/><path class="cls-6" d="M409.67,348.81l-68,36.83"/><path class="cls-6" d="M404.41,337.38l-68,36.84"/><path class="cls-5" d="M258.8,328.32,196.61,362"/><path class="cls-5" d="M245,321.63,198.3,346.9"/><path class="cls-5" d="M267.23,380.69l-51.36,27.82"/><path class="cls-5" d="M273,363.41,212.7,396.08"/><path class="cls-6" d="M273.67,348.81l-68,36.83"/><path class="cls-6" d="M268.41,337.38l-68,36.84"/><path class="cls-5" d="M123.15,328.32,61,362"/><path class="cls-5" d="M109.31,321.63,62.65,346.9"/><path class="cls-5" d="M131.58,380.69,80.22,408.51"/><path class="cls-5" d="M137.36,363.41,77.05,396.08"/><path class="cls-6" d="M138,348.81,70,385.64"/><path class="cls-6" d="M132.75,337.38l-68,36.84"/><path class="cls-1" d="M277.35,348.13c-4.69-17.91-19.41-30.35-38.06-32.47-17-1.94-34.36,7.28-42.73,22.76a43.11,43.11,0,0,0,5.62,49.24c6.28,7.25,9.84,15.25,9.14,25-.16,2.32,0,4.66,0,7,0,3.82-.07,7.64,0,11.46a23.82,23.82,0,1,0,47.63,0c.1-5.31.37-10.65-.05-15.94-.9-11.14,2.89-20.2,10.08-28.67C278.37,375.37,281.05,362.26,277.35,348.13Zm-27.75,90a16.34,16.34,0,0,1-14.37,9c-6.56,0-11.27-3.19-14.45-8.84-1.57-2.8-.3-3.42,2.34-3.36,4.13.1,8.27,0,12.41,0,4,0,7.94.06,11.91,0C250,434.87,250.73,435.6,249.6,438.12Zm-6.5-10.9c-6.65,0-13.3-.16-19.94.07-3.27.11-4.23-.92-4.2-4.18.08-8.1-.08-8.1,8.2-8.11h8c4.15,0,8.32.16,12.46-.05,2.84-.14,3.64.86,3.68,3.67C251.42,427.22,251.55,427.22,243.1,427.22Zm8.09-22.53c-.48,3.54-3,2.45-4.9,2.45-8.17,0-7,.8-7-6.68-.05-4.15,0-8.3,0-12.46h0c0-5.14,0-10.29,0-15.44,0-2.83-1-5.13-4.11-5.11s-4.09,2.3-4.08,5.14c0,10-.15,19.93.08,29.89.08,3.65-.92,4.7-4.68,4.87-5.13.23-7.56-.92-8.34-6.56C217,393.2,212,387.38,207.28,381.5c-15.49-19.27-7.13-48.11,16.06-55.93a35.92,35.92,0,0,1,41,13.36,34.89,34.89,0,0,1-1.75,43C257,388.68,252.38,395.82,251.19,404.69Z"/><path class="cls-1" d="M138.83,340.55c-7.72-16.26-21.36-24.89-39.37-24.95-18.24-.05-32,8.64-39.64,25.24s-5.21,32.39,6.39,46.57c3.71,4.54,7.08,9.15,8.56,15s.43,11.59.82,16.48c0,4.7-.08,8.52,0,12.34a23.81,23.81,0,0,0,47.62.21,151.33,151.33,0,0,0,0-15.94c-.89-11.29,2.93-20.43,10.14-29.16C144.7,372.54,146.47,356.65,138.83,340.55ZM113.42,439c-3.31,5.29-8,8.29-14.37,8.15-6.15-.14-10.62-3.19-13.75-8.37-1.45-2.4-1.5-4,2.07-3.84,4.13.15,8.27,0,12.41,0,3.81,0,7.62.16,11.42,0S115,436.37,113.42,439Zm-6.52-12H91.44c-8.41,0-9.64-1.63-8.15-10.09.39-2.21,1.66-2.1,3.15-2.11,8.65,0,17.29.06,25.93,0,2.36,0,3.06.77,3.19,3.13C116,427,116.14,427,106.9,427Zm8.6-22.65c-.53,3.87-3.29,2.55-5.29,2.6-6.69.21-6.69.11-6.69-6.55,0-4.16,0-8.31,0-12.48,0-5,0-10,0-15,0-2.91-.59-5.64-4.07-5.66s-4.16,2.62-4.15,5.58c0,9.81-.16,19.62.08,29.43.09,3.68-1,4.67-4.71,4.87-5.21.3-7.53-1.05-8.32-6.6-1-7.42-5.87-13.17-10.54-18.91-15.82-19.42-7.49-48.55,16-56.31a36,36,0,0,1,41,13.59,35,35,0,0,1-2.09,43C121.17,388.61,116.68,395.66,115.5,404.35Z"/><path class="cls-1" d="M414.57,359.65a43.8,43.8,0,0,0-80.39-24.39,43.06,43.06,0,0,0,3.58,52.24c6.41,7.41,10,15.53,9.27,25.42-.17,2.14,0,4.31,0,6.48,0,4-.09,8,0,12a23.81,23.81,0,0,0,47.62-.09c.14-5.82.35-11.65,0-17.44-.71-10.44,2.78-19.07,9.69-26.78S414.44,369.94,414.57,359.65Zm-29.29,78.46c-3.1,5.68-7.77,8.95-14.34,9s-11.27-3.2-14.45-8.82c-1.59-2.82-.29-3.42,2.33-3.37,4.14.09,8.28,0,12.41,0,4,0,7.95.08,11.92,0C385.68,434.87,386.62,435.66,385.28,438.11ZM379,427h-8c-4.16,0-8.33-.2-12.47.06-3.13.19-3.91-.93-3.91-3.95,0-8.32-.14-8.32,8-8.32,6.81,0,13.64.16,20.45-.07,3.12-.1,3.91.94,3.91,3.95C387,427,387.15,427,379,427Zm7.78-21.94c-.22,1.82-1.31,2.06-2.76,2.05-2,0-4-.1-6,0-2.38.15-3.21-.86-3.17-3.2.11-5.31,0-10.63,0-15.94h0c0-5,0-10,0-14.95,0-2.92-.57-5.63-4.05-5.67s-4.18,2.6-4.17,5.57c0,9.8-.12,19.6.09,29.39.08,3.54-.7,4.84-4.6,4.94-5,.13-7.65-.71-8.41-6.49-1-7.41-5.78-13.19-10.45-18.91a35.41,35.41,0,0,1,6.83-51.81,35.81,35.81,0,0,1,46.07,4.15c12.33,12.38,14,32.08,3.31,46C393.72,387.78,388,395.2,386.82,405.06Z"/></svg>