<svg xmlns="http://www.w3.org/2000/svg" viewBox="0 0 599.29 162.88"><defs><style>.cls-1,.cls-11{fill:none;}.cls-1,.cls-12,.cls-2,.cls-7{stroke:#fff;}.cls-1,.cls-11,.cls-12,.cls-13,.cls-2,.cls-7{stroke-miterlimit:10;}.cls-1{stroke-width:5px;}.cls-11,.cls-13,.cls-2,.cls-7{stroke-width:3px;}.cls-3,.cls-7{font-size:136px;}.cls-13,.cls-3{fill:#fff515;}.cls-3{font-family:MyriadPro-Regular, Myriad Pro;}.cls-4{letter-spacing:0.01em;}.cls-5{letter-spacing:0em;}.cls-6{font-size:128px;}.cls-7{font-family:ChaparralPro-Regular, Chaparral Pro;}.cls-10,.cls-8{font-size:140px;}.cls-8{letter-spacing:0em;}.cls-9{letter-spacing:0.01em;}.cls-11,.cls-13{stroke:#000;}.cls-12{stroke-width:2px;}</style></defs><g id="Layer_2" data-name="Layer 2"><ellipse class="cls-1" cx="59.62" cy="72.47" rx="24.94" ry="67.21"/><ellipse class="cls-1" cx="197.62" cy="394.74" rx="24.94" ry="67.21" transform="translate(-376.67 18.06) rotate(-56.25)"/><ellipse class="cls-1" cx="197.34" cy="394.74" rx="67.21" ry="24.94" transform="translate(-333.8 -124.07) rotate(-36.91)"/></g><g id="Layer_1" data-name="Layer 1"><rect class="cls-2" x="132.72" y="5.67" width="172" height="136.8"/><text class="cls-3" transform="translate(138.45 117)"><tspan class="cls-4">S</tspan><tspan class="cls-5" x="67.86" y="0">c</tspan><tspan class="cls-6" x="128.79" y="0">i</tspan></text><text class="cls-7" transform="translate(302.55 117)">K<tspan class="cls-8" x="85.82" y="0">i</tspan><tspan class="cls-9" x="123.05" y="0">t</tspan><tspan x="173.23" y="0">.</tspan><tspan class="cls-10" x="206.55" y="0">j</tspan><tspan x="240.71" y="0">s</tspan></text><ellipse class="cls-11" cx="59.62" cy="72.69" rx="21.87" ry="63.91"/><ellipse class="cls-11" cx="195.9" cy="395.78" rx="67.57" ry="20.69" transform="translate(-331.37 -131.23) rotate(-35.96)"/><ellipse class="cls-11" cx="195.9" cy="392.48" rx="20.6" ry="67.87" transform="translate(-376.34 22.17) rotate(-57.11)"/><ellipse class="cls-12" cx="59.62" cy="74.07" rx="6.83" ry="6.25"/><circle class="cls-13" cx="71.89" cy="17.62" r="4.8"/><circle class="cls-13" cx="16.73" cy="30.98" r="4.8"/><circle class="cls-13" cx="6.3" cy="99.94" r="4.8"/></g></svg>